<?xml version="1.0" encoding="UTF-8" standalone="no"?>
<!DOCTYPE svg PUBLIC "-//W3C//DTD SVG 1.1//EN"
 "http://www.w3.org/Graphics/SVG/1.1/DTD/svg11.dtd">
<!-- Generated by graphviz version 9.0.0 (20230911.1827)
 -->
<!-- Pages: 1 -->
<svg width="749pt" height="281pt"
 viewBox="0.00 0.00 749.00 280.71" xmlns="http://www.w3.org/2000/svg" xmlns:xlink="http://www.w3.org/1999/xlink">
<g id="graph0" class="graph" transform="scale(1 1) rotate(0) translate(4 276.71)">
<polygon fill="white" stroke="none" points="-4,4 -4,-276.71 745,-276.71 745,4 -4,4"/>
<!-- A -->
<g id="node1" class="node">
<title>A</title>
<polygon fill="#d1edcb" stroke="black" points="54,-26.21 40.5,-44.21 13.5,-44.21 0,-26.21 13.5,-8.21 40.5,-8.21 54,-26.21"/>
<text text-anchor="middle" x="27" y="-21.16" font-family="Times,serif" font-size="14.00">A</text>
</g>
<!-- B -->
<g id="node2" class="node">
<title>B</title>
<polygon fill="#86cc85" stroke="black" points="192.75,-83.21 179.25,-101.21 152.25,-101.21 138.75,-83.21 152.25,-65.21 179.25,-65.21 192.75,-83.21"/>
<text text-anchor="middle" x="165.75" y="-78.16" font-family="Times,serif" font-size="14.00">B</text>
</g>
<!-- A&#45;&gt;B -->
<g id="edge1" class="edge">
<title>A&#45;&gt;B</title>
<path fill="none" stroke="black" stroke-width="0.21" d="M43.14,-41.02C51.14,-48.08 61.47,-56.09 72,-61.21 90.29,-70.1 112.39,-75.53 130.43,-78.77"/>
<polygon fill="black" stroke="black" stroke-width="0.21" points="129.78,-82.2 140.21,-80.38 130.91,-75.3 129.78,-82.2"/>
<text text-anchor="middle" x="96.38" y="-79.41" font-family="Times,serif" font-size="14.00">0.21, 0.0</text>
</g>
<!-- F -->
<g id="node3" class="node">
<title>F</title>
<polygon fill="#abdda5" stroke="black" points="331.5,-21.21 318,-39.21 291,-39.21 277.5,-21.21 291,-3.21 318,-3.21 331.5,-21.21"/>
<text text-anchor="middle" x="304.5" y="-16.16" font-family="Times,serif" font-size="14.00">F</text>
</g>
<!-- A&#45;&gt;F -->
<g id="edge2" class="edge">
<title>A&#45;&gt;F</title>
<path fill="none" stroke="black" stroke-width="0.38" d="M53.59,-24.91C59.62,-24.64 66.04,-24.39 72,-24.21 140.67,-22.21 220.83,-21.54 266.53,-21.32"/>
<polygon fill="black" stroke="black" stroke-width="0.38" points="266.54,-24.82 276.53,-21.28 266.51,-17.82 266.54,-24.82"/>
<text text-anchor="middle" x="165.75" y="-26.41" font-family="Times,serif" font-size="14.00">0.38, 0.0</text>
</g>
<!-- B&#45;&gt;A -->
<g id="edge3" class="edge">
<title>B&#45;&gt;A</title>
<path fill="none" stroke="black" stroke-width="0.2" d="M151.5,-66.08C143.58,-57.06 132.73,-46.67 120.75,-40.71 103.43,-32.1 82.23,-28.35 64.47,-26.82"/>
<polygon fill="black" stroke="black" stroke-width="0.2" points="64.98,-23.34 54.77,-26.17 64.51,-30.33 64.98,-23.34"/>
<text text-anchor="middle" x="96.38" y="-43.41" font-family="Times,serif" font-size="14.00">0.2, 0.0</text>
</g>
<!-- B&#45;&gt;F -->
<g id="edge4" class="edge">
<title>B&#45;&gt;F</title>
<path fill="none" stroke="black" stroke-width="0.28" d="M191.17,-80.82C210.59,-78.13 237.98,-72.56 259.5,-61.21 267.64,-56.92 275.44,-50.77 282.16,-44.57"/>
<polygon fill="black" stroke="black" stroke-width="0.28" points="284.5,-47.18 289.2,-37.68 279.61,-42.17 284.5,-47.18"/>
<text text-anchor="middle" x="235.12" y="-79.41" font-family="Times,serif" font-size="14.00">0.28, 0.0</text>
</g>
<!-- C -->
<g id="node4" class="node">
<title>C</title>
<polygon fill="#f7fcf5" stroke="black" points="331.5,-179.21 318,-197.21 291,-197.21 277.5,-179.21 291,-161.21 318,-161.21 331.5,-179.21"/>
<text text-anchor="middle" x="304.5" y="-174.16" font-family="Times,serif" font-size="14.00">C</text>
</g>
<!-- B&#45;&gt;C -->
<g id="edge5" class="edge">
<title>B&#45;&gt;C</title>
<path fill="none" stroke="black" stroke-width="0.95" d="M180.22,-100.2C188.38,-109.78 199.38,-121.53 210.75,-130.21 229.87,-144.81 253.95,-157.39 272.78,-166.15"/>
<polygon fill="black" stroke="black" stroke-width="0.95" points="271.33,-169.33 281.88,-170.26 274.21,-162.95 271.33,-169.33"/>
<text text-anchor="middle" x="235.12" y="-162.41" font-family="Times,serif" font-size="14.00">0.95, 0.0</text>
</g>
<!-- I -->
<g id="node5" class="node">
<title>I</title>
<polygon fill="#f7fcf5" stroke="black" points="331.5,-114.21 318,-132.21 291,-132.21 277.5,-114.21 291,-96.21 318,-96.21 331.5,-114.21"/>
<text text-anchor="middle" x="304.5" y="-109.16" font-family="Times,serif" font-size="14.00">I</text>
</g>
<!-- B&#45;&gt;I -->
<g id="edge6" class="edge">
<title>B&#45;&gt;I</title>
<path fill="none" stroke="black" stroke-width="0.98" d="M186.1,-92.35C193.65,-95.58 202.46,-98.98 210.75,-101.21 228.99,-106.14 249.78,-109.27 267.04,-111.22"/>
<polygon fill="black" stroke="black" stroke-width="0.98" points="266.57,-114.69 276.88,-112.24 267.29,-107.73 266.57,-114.69"/>
<text text-anchor="middle" x="235.12" y="-112.41" font-family="Times,serif" font-size="14.00">0.98, 0.0</text>
</g>
<!-- F&#45;&gt;A -->
<g id="edge7" class="edge">
<title>F&#45;&gt;A</title>
<path fill="none" stroke="black" stroke-width="0.59" d="M281.4,-15.4C249.79,-7.81 189.86,3.87 138.75,-1.71 111.96,-4.64 82.15,-11.44 60.22,-17.14"/>
<polygon fill="black" stroke="black" stroke-width="0.59" points="59.46,-13.72 50.7,-19.67 61.26,-20.48 59.46,-13.72"/>
<text text-anchor="middle" x="165.75" y="-5.41" font-family="Times,serif" font-size="14.00">0.59, 0.0</text>
</g>
<!-- F&#45;&gt;B -->
<g id="edge8" class="edge">
<title>F&#45;&gt;B</title>
<path fill="none" stroke="black" stroke-width="0.34" d="M278.2,-22.73C258.78,-24.76 231.83,-29.53 210.75,-40.71 202.07,-45.32 193.91,-52.15 187.04,-58.99"/>
<polygon fill="black" stroke="black" stroke-width="0.34" points="184.8,-56.27 180.47,-65.94 189.88,-61.08 184.8,-56.27"/>
<text text-anchor="middle" x="235.12" y="-43.41" font-family="Times,serif" font-size="14.00">0.34, 0.0</text>
</g>
<!-- G -->
<g id="node6" class="node">
<title>G</title>
<polygon fill="#f7fcf5" stroke="black" points="470.25,-21.21 456.75,-39.21 429.75,-39.21 416.25,-21.21 429.75,-3.21 456.75,-3.21 470.25,-21.21"/>
<text text-anchor="middle" x="443.25" y="-16.16" font-family="Times,serif" font-size="14.00">G</text>
</g>
<!-- F&#45;&gt;G -->
<g id="edge9" class="edge">
<title>F&#45;&gt;G</title>
<path fill="none" stroke="black" d="M331.87,-21.21C352.49,-21.21 381.43,-21.21 404.51,-21.21"/>
<polygon fill="black" stroke="black" points="404.45,-24.71 414.45,-21.21 404.45,-17.71 404.45,-24.71"/>
<text text-anchor="middle" x="373.88" y="-24.41" font-family="Times,serif" font-size="14.00">1.0, 0.0</text>
</g>
<!-- D -->
<g id="node7" class="node">
<title>D</title>
<polygon fill="#f7fcf5" stroke="black" points="470.25,-157.21 456.75,-175.21 429.75,-175.21 416.25,-157.21 429.75,-139.21 456.75,-139.21 470.25,-157.21"/>
<text text-anchor="middle" x="443.25" y="-152.16" font-family="Times,serif" font-size="14.00">D</text>
</g>
<!-- C&#45;&gt;D -->
<g id="edge10" class="edge">
<title>C&#45;&gt;D</title>
<path fill="none" stroke="black" stroke-width="0.98" d="M326.31,-171.86C333.57,-169.56 341.82,-167.23 349.5,-165.71 367.68,-162.13 388.16,-160.05 405.24,-158.85"/>
<polygon fill="black" stroke="black" stroke-width="0.98" points="405.21,-162.36 414.98,-158.24 404.78,-155.37 405.21,-162.36"/>
<text text-anchor="middle" x="373.88" y="-168.41" font-family="Times,serif" font-size="14.00">0.98, 0.0</text>
</g>
<!-- E -->
<g id="node8" class="node">
<title>E</title>
<polygon fill="#f7fcf5" stroke="black" points="609,-238.21 595.5,-256.21 568.5,-256.21 555,-238.21 568.5,-220.21 595.5,-220.21 609,-238.21"/>
<text text-anchor="middle" x="582" y="-233.16" font-family="Times,serif" font-size="14.00">E</text>
</g>
<!-- C&#45;&gt;E -->
<g id="edge11" class="edge">
<title>C&#45;&gt;E</title>
<path fill="none" stroke="black" stroke-width="0.67" d="M319.39,-196.14C327.36,-204.82 338.04,-214.87 349.5,-221.21 423.27,-262.07 453.42,-261.41 537,-250.21 541,-249.68 545.16,-248.88 549.24,-247.94"/>
<polygon fill="black" stroke="black" stroke-width="0.67" points="549.96,-251.37 558.77,-245.49 548.22,-244.59 549.96,-251.37"/>
<text text-anchor="middle" x="443.25" y="-259.41" font-family="Times,serif" font-size="14.00">0.67, 0.0</text>
</g>
<!-- L -->
<g id="node9" class="node">
<title>L</title>
<polygon fill="#f7fcf5" stroke="black" points="470.25,-211.21 456.75,-229.21 429.75,-229.21 416.25,-211.21 429.75,-193.21 456.75,-193.21 470.25,-211.21"/>
<text text-anchor="middle" x="443.25" y="-206.16" font-family="Times,serif" font-size="14.00">L</text>
</g>
<!-- C&#45;&gt;L -->
<g id="edge12" class="edge">
<title>C&#45;&gt;L</title>
<path fill="none" stroke="black" d="M328.08,-184.5C349.95,-189.62 383.4,-197.44 408.45,-203.3"/>
<polygon fill="black" stroke="black" points="407.63,-206.71 418.16,-205.58 409.22,-199.89 407.63,-206.71"/>
<text text-anchor="middle" x="373.88" y="-203.41" font-family="Times,serif" font-size="14.00">1.0, 0.0</text>
</g>
<!-- H -->
<g id="node10" class="node">
<title>H</title>
<polygon fill="#f7fcf5" stroke="black" points="470.25,-103.21 456.75,-121.21 429.75,-121.21 416.25,-103.21 429.75,-85.21 456.75,-85.21 470.25,-103.21"/>
<text text-anchor="middle" x="443.25" y="-98.16" font-family="Times,serif" font-size="14.00">H</text>
</g>
<!-- I&#45;&gt;H -->
<g id="edge13" class="edge">
<title>I&#45;&gt;H</title>
<path fill="none" stroke="black" stroke-width="0.97" d="M330.58,-112.2C351.69,-110.5 382.15,-108.05 405.93,-106.14"/>
<polygon fill="black" stroke="black" stroke-width="0.97" points="406.17,-109.63 415.86,-105.34 405.61,-102.65 406.17,-109.63"/>
<text text-anchor="middle" x="373.88" y="-113.41" font-family="Times,serif" font-size="14.00">0.97, 0.0</text>
</g>
<!-- K -->
<g id="node11" class="node">
<title>K</title>
<polygon fill="#f7fcf5" stroke="black" points="741,-238.21 727.5,-256.21 700.5,-256.21 687,-238.21 700.5,-220.21 727.5,-220.21 741,-238.21"/>
<text text-anchor="middle" x="714" y="-233.16" font-family="Times,serif" font-size="14.00">K</text>
</g>
<!-- E&#45;&gt;K -->
<g id="edge14" class="edge">
<title>E&#45;&gt;K</title>
<path fill="none" stroke="black" d="M609.62,-238.21C628.46,-238.21 654.01,-238.21 674.99,-238.21"/>
<polygon fill="black" stroke="black" points="674.9,-241.71 684.9,-238.21 674.9,-234.71 674.9,-241.71"/>
<text text-anchor="middle" x="648" y="-241.41" font-family="Times,serif" font-size="14.00">1.0, 0.0</text>
</g>
<!-- L&#45;&gt;E -->
<g id="edge15" class="edge">
<title>L&#45;&gt;E</title>
<path fill="none" stroke="black" stroke-width="0.33" d="M467.14,-215.73C489.23,-220.09 522.9,-226.74 547.91,-231.68"/>
<polygon fill="black" stroke="black" stroke-width="0.33" points="547.05,-235.08 557.54,-233.58 548.41,-228.21 547.05,-235.08"/>
<text text-anchor="middle" x="512.62" y="-232.41" font-family="Times,serif" font-size="14.00">0.33, 0.0</text>
</g>
</g>
</svg>
